<mxfile host="app.diagrams.net" modified="2024-01-17T21:58:04.141Z" agent="Mozilla/5.0 (Windows NT 10.0; Win64; x64) AppleWebKit/537.36 (KHTML, like Gecko) Chrome/120.0.0.0 Safari/537.36" version="22.1.21" etag="EYzf22PvJYx5ARlrDYXq" type="github">
  <diagram name="PÃ¡gina-1" id="QucJbjz_OcZMdf_oA8Ip">
    <mxGraphModel>
      <root>
        <mxCell id="0" />
        <mxCell id="1" parent="0" />
      </root>
    </mxGraphModel>
  </diagram>
</mxfile>
